<svg width="48" height="48" viewBox="0 0 48 48" fill="none" xmlns="http://www.w3.org/2000/svg">
<path d="M22.5 32.15L28.05 26.6L33.6 32.15L36.25 29.5L30.65 24L36.15 18.5L33.5 15.85L28.05 21.4L22.5 15.85L19.85 18.5L25.45 24L19.85 29.5L22.5 32.15ZM5 24L13.85 11.45C14.3167 10.7167 14.925 10.125 15.675 9.675C16.425 9.225 17.25 9 18.15 9H38.9C40.0333 9 41.0167 9.41667 41.85 10.25C42.6833 11.0833 43.1 12.0667 43.1 13.2V34.8C43.1 35.9333 42.6833 36.9083 41.85 37.725C41.0167 38.5417 40.0333 38.95 38.9 38.95H18.15C17.25 38.95 16.425 38.7333 15.675 38.3C14.925 37.8667 14.3167 37.2833 13.85 36.55L5 24Z" fill="#D36327"/>
</svg>
